<svg width="500" height="500" viewBox="0 0 500 500" fill="none" xmlns="http://www.w3.org/2000/svg">
<rect width="500" height="500" fill="black"/>
<path d="M350 187C350 167.222 344.135 147.888 333.147 131.443C322.159 114.998 306.541 102.181 288.268 94.612C269.996 87.0433 249.889 85.0629 230.491 88.9215C211.093 92.78 193.275 102.304 179.289 116.289C165.304 130.275 155.78 148.093 151.921 167.491C148.063 186.889 150.043 206.996 157.612 225.268C165.181 243.541 177.998 259.159 194.443 270.147C210.888 281.135 230.222 287 250 287L250 250.883C237.365 250.883 225.014 247.136 214.508 240.117C204.003 233.097 195.815 223.12 190.98 211.447C186.145 199.774 184.879 186.929 187.344 174.537C189.809 162.145 195.894 150.762 204.828 141.828C213.762 132.894 225.145 126.809 237.537 124.344C249.929 121.879 262.774 123.145 274.447 127.98C286.12 132.815 296.097 141.003 303.117 151.508C310.136 162.014 313.883 174.365 313.883 187H350Z" fill="#00FF3C"/>
<path d="M250 187C269.778 187 289.112 192.865 305.557 203.853C322.002 214.841 334.819 230.459 342.388 248.732C349.957 267.004 351.937 287.111 348.079 306.509C344.22 325.907 334.696 343.725 320.711 357.711C306.725 371.696 288.907 381.22 269.509 385.079C250.111 388.937 230.004 386.957 211.732 379.388C193.459 371.819 177.841 359.002 166.853 342.557C155.865 326.112 150 306.778 150 287L186.117 287C186.117 299.635 189.864 311.986 196.883 322.492C203.903 332.997 213.88 341.185 225.553 346.02C237.226 350.855 250.071 352.121 262.463 349.656C274.855 347.191 286.238 341.106 295.172 332.172C304.106 323.238 310.191 311.855 312.656 299.463C315.121 287.071 313.855 274.226 309.02 262.553C304.185 250.88 295.997 240.903 285.492 233.883C274.986 226.864 262.635 223.117 250 223.117V187Z" fill="#00FF3C"/>
</svg>
